<svg width="16" height="18" viewBox="0 0 16 18" fill="none" xmlns="http://www.w3.org/2000/svg">
<path d="M13.2833 1.82778V1.77778V0.888889C13.2833 0.427614 12.9057 0.05 12.4444 0.05C11.9832 0.05 11.6056 0.427614 11.6056 0.888889V1.77778V1.82778H11.5556H4.44444H4.39444V1.77778V0.888889C4.39444 0.427614 4.01683 0.05 3.55556 0.05C3.09428 0.05 2.71667 0.427614 2.71667 0.888889V1.77778V1.82778H2.66667H1.77778C0.819214 1.82778 0.0588889 2.6049 0.0588889 3.55555V3.55559L0.05 16C0.05 16 0.05 16 0.05 16M13.2833 1.82778L14.2222 1.77778C15.2 1.77778 16 2.57778 16 3.55555V16C16 16.9778 15.2 17.7778 14.2222 17.7778H1.77778C0.791111 17.7778 0 16.9778 0 16L0.05 16M13.2833 1.82778H13.3333H14.2222C15.1724 1.82778 15.95 2.60539 15.95 3.55555V16C15.95 16.9502 15.1724 17.7278 14.2222 17.7278H1.77778C0.8189 17.7278 0.050019 16.9503 0.05 16M13.2833 1.82778L0.05 16M1.77778 6.17222H1.72778V6.22222V15.1111C1.72778 15.6276 2.15016 16.05 2.66667 16.05H13.3333C13.8498 16.05 14.2722 15.6276 14.2722 15.1111V6.22222V6.17222H14.2222H1.77778ZM5.28333 8.05V9.72778H3.60556V8.05H5.28333ZM7.16111 8.05H8.83889V9.72778H7.16111V8.05ZM12.3944 8.05V9.72778H10.7167V8.05H12.3944Z" fill="#C2CFE0" stroke="white" stroke-width="0.1"/>
</svg>
