<svg width="16" height="15" viewBox="0 0 16 15" fill="none" xmlns="http://www.w3.org/2000/svg">
<path d="M7.57324 6.66667C5.33713 6.66667 3.5281 6.32639 2.14616 5.64583C0.764215 4.96528 0.0732422 4.19444 0.0732422 3.33333C0.0732422 2.45833 0.764215 1.68403 2.14616 1.01042C3.5281 0.336806 5.33713 0 7.57324 0C9.80935 0 11.6184 0.336806 13.0003 1.01042C14.3823 1.68403 15.0732 2.45833 15.0732 3.33333C15.0732 4.19444 14.3823 4.96528 13.0003 5.64583C11.6184 6.32639 9.80935 6.66667 7.57324 6.66667ZM7.57324 10.8333C5.54546 10.8333 3.78852 10.5278 2.30241 9.91667C0.816298 9.30556 0.0732422 8.56944 0.0732422 7.70833V5.625C0.0732422 6.16667 0.333659 6.63542 0.854492 7.03125C1.37533 7.42708 2.02116 7.75347 2.79199 8.01042C3.56283 8.26736 4.38227 8.45486 5.25033 8.57292C6.11838 8.69097 6.89269 8.75 7.57324 8.75C8.26769 8.75 9.04546 8.69097 9.90658 8.57292C10.7677 8.45486 11.5837 8.27083 12.3545 8.02083C13.1253 7.77083 13.7712 7.44792 14.292 7.05208C14.8128 6.65625 15.0732 6.18056 15.0732 5.625V7.70833C15.0732 8.56944 14.3302 9.30556 12.8441 9.91667C11.358 10.5278 9.60102 10.8333 7.57324 10.8333ZM7.57324 15C5.54546 15 3.78852 14.6944 2.30241 14.0833C0.816298 13.4722 0.0732422 12.7361 0.0732422 11.875V9.79167C0.0732422 10.3333 0.333659 10.8021 0.854492 11.1979C1.37533 11.5938 2.02116 11.9201 2.79199 12.1771C3.56283 12.434 4.38227 12.6215 5.25033 12.7396C6.11838 12.8576 6.89269 12.9167 7.57324 12.9167C8.26769 12.9167 9.04546 12.8576 9.90658 12.7396C10.7677 12.6215 11.5837 12.4375 12.3545 12.1875C13.1253 11.9375 13.7712 11.6146 14.292 11.2187C14.8128 10.8229 15.0732 10.3472 15.0732 9.79167V11.875C15.0732 12.7361 14.3302 13.4722 12.8441 14.0833C11.358 14.6944 9.60102 15 7.57324 15Z" fill="#778192"/>
</svg>
