<svg width="16" height="17" viewBox="0 0 16 17" fill="none" xmlns="http://www.w3.org/2000/svg">
<path d="M1.53662 16.8149C1.20329 16.8149 0.911621 16.6899 0.661621 16.4399C0.411621 16.1899 0.286621 15.8982 0.286621 15.5649V11.4399L3.09912 8.33573L3.99495 9.23156L1.53662 11.9191H14.0366L11.7241 9.29406L12.62 8.39823L15.2866 11.4399V15.5649C15.2866 15.8982 15.1616 16.1899 14.9116 16.4399C14.6616 16.6899 14.37 16.8149 14.0366 16.8149H1.53662ZM1.53662 15.5649H14.0366V13.1691H1.53662V15.5649ZM6.99495 10.4607L3.68245 7.14823C3.41857 6.88434 3.30051 6.5892 3.32829 6.26281C3.35607 5.93642 3.49495 5.64823 3.74495 5.39823L8.16162 0.981564C8.39773 0.745453 8.6894 0.623925 9.03662 0.616981C9.38384 0.610036 9.68245 0.731564 9.93245 0.981564L13.245 4.29406C13.4811 4.53018 13.6026 4.81143 13.6095 5.13781C13.6165 5.4642 13.4811 5.76629 13.2033 6.04406L8.78662 10.4607C8.55051 10.6968 8.25884 10.8218 7.91162 10.8357C7.5644 10.8496 7.25884 10.7246 6.99495 10.4607ZM12.1825 5.10656L9.05745 1.98156L4.72412 6.3149L7.84912 9.4399L12.1825 5.10656ZM1.53662 15.5649V13.1691V15.5649Z" fill="#334D6E"/>
</svg>
