<svg width="21" height="10" viewBox="0 0 21 10" fill="none" xmlns="http://www.w3.org/2000/svg">
<path d="M0.786621 10V8.89583C0.786621 8.35417 1.07829 7.91667 1.66162 7.58333C2.24495 7.25 2.99495 7.08333 3.91162 7.08333C4.09218 7.08333 4.25884 7.08681 4.41162 7.09375C4.5644 7.10069 4.71718 7.11806 4.86995 7.14583C4.75884 7.38194 4.67551 7.62153 4.61995 7.86458C4.5644 8.10764 4.53662 8.36806 4.53662 8.64583V10H0.786621ZM5.78662 10V8.64583C5.78662 7.74306 6.24843 7.01389 7.17204 6.45833C8.09565 5.90278 9.30051 5.625 10.7866 5.625C12.2866 5.625 13.495 5.90278 14.4116 6.45833C15.3283 7.01389 15.7866 7.74306 15.7866 8.64583V10H5.78662ZM17.0366 10V8.64583C17.0366 8.36806 17.0123 8.10764 16.9637 7.86458C16.9151 7.62153 16.8352 7.38194 16.7241 7.14583C16.8769 7.11806 17.0297 7.10069 17.1825 7.09375C17.3352 7.08681 17.495 7.08333 17.6616 7.08333C18.6061 7.08333 19.363 7.25 19.9325 7.58333C20.5019 7.91667 20.7866 8.35417 20.7866 8.89583V10H17.0366ZM10.7866 6.875C9.67551 6.875 8.77273 7.04167 8.07829 7.375C7.38384 7.70833 7.03662 8.13194 7.03662 8.64583V8.75H14.5366V8.625C14.5366 8.125 14.1929 7.70833 13.5054 7.375C12.8179 7.04167 11.9116 6.875 10.7866 6.875ZM3.91162 6.45833C3.50884 6.45833 3.16509 6.31597 2.88037 6.03125C2.59565 5.74653 2.45329 5.40278 2.45329 5C2.45329 4.59722 2.59565 4.25347 2.88037 3.96875C3.16509 3.68403 3.50884 3.54167 3.91162 3.54167C4.3144 3.54167 4.65815 3.68403 4.94287 3.96875C5.22759 4.25347 5.36995 4.59722 5.36995 5C5.36995 5.40278 5.22759 5.74653 4.94287 6.03125C4.65815 6.31597 4.3144 6.45833 3.91162 6.45833ZM17.6616 6.45833C17.2588 6.45833 16.9151 6.31597 16.6304 6.03125C16.3456 5.74653 16.2033 5.40278 16.2033 5C16.2033 4.59722 16.3456 4.25347 16.6304 3.96875C16.9151 3.68403 17.2588 3.54167 17.6616 3.54167C18.0644 3.54167 18.4081 3.68403 18.6929 3.96875C18.9776 4.25347 19.12 4.59722 19.12 5C19.12 5.40278 18.9776 5.74653 18.6929 6.03125C18.4081 6.31597 18.0644 6.45833 17.6616 6.45833ZM10.7866 5C10.0922 5 9.5019 4.75694 9.01579 4.27083C8.52968 3.78472 8.28662 3.19444 8.28662 2.5C8.28662 1.79167 8.52968 1.19792 9.01579 0.71875C9.5019 0.239583 10.0922 0 10.7866 0C11.495 0 12.0887 0.239583 12.5679 0.71875C13.047 1.19792 13.2866 1.79167 13.2866 2.5C13.2866 3.19444 13.047 3.78472 12.5679 4.27083C12.0887 4.75694 11.495 5 10.7866 5ZM10.7866 1.25C10.4394 1.25 10.1443 1.36806 9.9012 1.60417C9.65815 1.84028 9.53662 2.13889 9.53662 2.5C9.53662 2.84722 9.65815 3.14236 9.9012 3.38542C10.1443 3.62847 10.4394 3.75 10.7866 3.75C11.1477 3.75 11.4463 3.62847 11.6825 3.38542C11.9186 3.14236 12.0366 2.84722 12.0366 2.5C12.0366 2.13889 11.9186 1.84028 11.6825 1.60417C11.4463 1.36806 11.1477 1.25 10.7866 1.25Z" fill="#334D6E"/>
</svg>
