<svg width="16" height="16" viewBox="0 0 16 16" fill="none" xmlns="http://www.w3.org/2000/svg">
<path d="M1.32324 7.46191C0.989909 7.46191 0.698242 7.33691 0.448242 7.08691C0.198242 6.83691 0.0732422 6.54525 0.0732422 6.21191V1.83691C0.0732422 1.50358 0.198242 1.21191 0.448242 0.961914C0.698242 0.711914 0.989909 0.586914 1.32324 0.586914H13.8232C14.1566 0.586914 14.4482 0.711914 14.6982 0.961914C14.9482 1.21191 15.0732 1.50358 15.0732 1.83691V6.21191C15.0732 6.54525 14.9482 6.83691 14.6982 7.08691C14.4482 7.33691 14.1566 7.46191 13.8232 7.46191H1.32324ZM1.32324 6.21191H13.8232V1.83691H1.32324V6.21191ZM1.32324 15.5869C0.989909 15.5869 0.698242 15.4619 0.448242 15.2119C0.198242 14.9619 0.0732422 14.6702 0.0732422 14.3369V9.96191C0.0732422 9.62858 0.198242 9.33691 0.448242 9.08691C0.698242 8.83691 0.989909 8.71191 1.32324 8.71191H13.8232C14.1566 8.71191 14.4482 8.83691 14.6982 9.08691C14.9482 9.33691 15.0732 9.62858 15.0732 9.96191V14.3369C15.0732 14.6702 14.9482 14.9619 14.6982 15.2119C14.4482 15.4619 14.1566 15.5869 13.8232 15.5869H1.32324ZM1.32324 14.3369H13.8232V9.96191H1.32324V14.3369ZM1.32324 1.83691V6.21191V1.83691ZM1.32324 9.96191V14.3369V9.96191Z" fill="#778192"/>
</svg>
