<svg width="18" height="18" viewBox="0 0 18 18" fill="none" xmlns="http://www.w3.org/2000/svg">
<path d="M15.6151 11.8132V5.10482L11.2401 2.04232L6.86507 5.10482V7.79232H5.61507V4.47982L11.2401 0.458984L16.8651 4.47982V11.8132H15.6151ZM11.6567 6.29232H12.4901V5.45898H11.6567V6.29232ZM9.99007 6.29232H10.8234V5.45898H9.99007V6.29232ZM11.6567 7.95898H12.4901V7.12565H11.6567V7.95898ZM9.99007 7.95898H10.8234V7.12565H9.99007V7.95898ZM11.3651 17.9173L4.8859 16.0632V17.2507H0.406738V9.04232H6.84424L12.1567 11.0423C12.5317 11.1812 12.8477 11.4069 13.1047 11.7194C13.3616 12.0319 13.4901 12.4798 13.4901 13.0632H15.8651C16.4484 13.0632 16.9345 13.2715 17.3234 13.6882C17.7123 14.1048 17.9067 14.6673 17.9067 15.3757V15.9173L11.3651 17.9173ZM1.65674 16.0007H3.61507V10.2923H1.65674V16.0007ZM11.2817 16.6257L16.6151 15.0007C16.5317 14.7368 16.4276 14.5562 16.3026 14.459C16.1776 14.3618 16.0317 14.3132 15.8651 14.3132H11.5526C11.1359 14.3132 10.7505 14.2854 10.3963 14.2298C10.0422 14.1743 9.70535 14.0979 9.3859 14.0007L7.6984 13.4798L8.15674 12.2715L9.67757 12.7715C10.0248 12.8826 10.3547 12.959 10.6672 13.0007C10.9797 13.0423 11.4762 13.0632 12.1567 13.0632C12.1567 12.8965 12.1255 12.7333 12.063 12.5736C12.0005 12.4138 11.8928 12.2993 11.7401 12.2298L6.63591 10.2923H4.8859V14.7507L11.2817 16.6257Z" fill="#778192"/>
</svg>
