<svg width="17" height="17" viewBox="0 0 17 17" fill="none" xmlns="http://www.w3.org/2000/svg">
<path fill-rule="evenodd" clip-rule="evenodd" d="M11.7209 0.0592393C11.6001 0.0916507 11.3974 0.175896 11.2703 0.246434C11.1433 0.317011 9.89327 1.3009 8.49253 2.4329C7.09183 3.5649 5.8897 4.53024 5.82114 4.57812C5.74713 4.62983 5.3247 4.76387 4.78091 4.90827C3.66872 5.2036 3.4236 5.31866 2.992 5.7482C2.55881 6.17934 2.31293 6.66171 2.24224 7.2191L2.21426 7.43979L1.77398 7.56527C1.19477 7.73033 0.99136 7.83631 0.66375 8.14352C0.19585 8.58229 -0.0407817 9.18748 0.00576811 9.82635C0.0339062 10.213 0.354952 11.3618 0.5239 11.6804C0.71062 12.0327 1.08002 12.3861 1.43945 12.5565C1.99544 12.82 2.43945 12.8481 3.13485 12.6637L3.57514 12.5469L3.67296 12.6753C4.09303 13.2267 4.92464 13.7029 5.46723 13.7029C5.53291 13.7029 5.60448 13.7254 5.62629 13.7529C5.64815 13.7804 5.84107 14.4143 6.05505 15.1616C6.26902 15.909 6.48304 16.5792 6.53059 16.6509C6.57818 16.7228 6.68761 16.8307 6.77379 16.8907C6.91136 16.9867 6.96787 17 7.23749 17C7.5071 17 7.56362 16.9867 7.70118 16.8907C7.93565 16.7272 8.05057 16.5328 8.06978 16.2669C8.08379 16.0728 8.03448 15.8628 7.7212 14.782C7.52051 14.0896 7.34728 13.4945 7.33623 13.4595C7.32018 13.4086 7.39162 13.3762 7.6943 13.2973L8.07238 13.1987L9.10588 13.3116C9.67429 13.3737 11.211 13.5418 12.5209 13.6851C14.5975 13.9123 14.9361 13.9404 15.1654 13.9049C16.0191 13.7729 16.6317 13.2568 16.9071 12.4376C17.0004 12.1601 17.01 12.0807 16.9933 11.7251C16.9758 11.3545 16.8767 10.9617 15.6472 6.38939C14.6152 2.55207 14.2874 1.38706 14.1741 1.15403C13.9175 0.626577 13.4 0.207228 12.8194 0.056242C12.5264 -0.0199306 12.0108 -0.0185318 11.7209 0.0592393ZM12.4662 1.73871C12.5418 1.77456 12.6209 1.83607 12.642 1.87539C12.6717 1.93082 14.9667 10.4313 15.2604 11.574C15.3172 11.7948 15.3178 11.8388 15.2657 11.9632C15.2282 12.0529 15.1574 12.1271 15.0697 12.1689C14.9382 12.2315 14.8019 12.2199 11.8223 11.8931C10.1117 11.7054 8.70222 11.542 8.69006 11.5298C8.64295 11.4828 7.11933 5.73226 7.14755 5.70808C7.49373 5.4111 12.0493 1.76337 12.1202 1.72644C12.2508 1.65834 12.3003 1.6601 12.4662 1.73871ZM5.55641 6.48687C5.55641 6.49654 5.87137 7.67773 6.2563 9.11178C6.64126 10.5458 6.95194 11.7232 6.94674 11.7281C6.91168 11.7617 5.82638 12.0244 5.72275 12.0244C5.47668 12.0244 5.21263 11.87 5.03459 11.622C4.92352 11.4673 3.94505 7.81881 3.94213 7.54837C3.93921 7.27917 4.05292 7.04058 4.25902 6.8836C4.40963 6.7689 5.55641 6.41825 5.55641 6.48687ZM2.7751 9.96803C2.8981 10.4286 3.00733 10.8347 3.01782 10.8703C3.03287 10.9213 2.9816 10.949 2.77747 11.0002C2.35259 11.1067 2.18741 11.085 2.04608 10.9036C1.97759 10.8158 1.71394 9.82307 1.71394 9.65314C1.71394 9.42958 1.84191 9.31656 2.21438 9.2111C2.39042 9.16126 2.53827 9.12277 2.54296 9.12553C2.54764 9.12833 2.65207 9.50743 2.7751 9.96803Z" fill="#C2CFE0"/>
</svg>
